<svg xmlns="http://www.w3.org/2000/svg" width="254.854" height="207.736" viewBox="0 0 254.854 207.736"><defs><style>.a{fill:#fff;}.b{fill:#fc0;}</style></defs><g transform="translate(-555.572 -890.264)"><circle class="a" cx="89" cy="89" r="89" transform="translate(594 920)"/><path class="b" d="M58.56,4.26,42.941,35.929,8,41.024a7.658,7.658,0,0,0-4.234,13.06L29.044,78.721l-5.98,34.8a7.65,7.65,0,0,0,11.1,8.061l31.262-16.433,31.262,16.433a7.655,7.655,0,0,0,11.1-8.061l-5.98-34.8,25.283-24.637a7.658,7.658,0,0,0-4.234-13.06L87.909,35.929,72.29,4.26a7.661,7.661,0,0,0-13.73,0Z" transform="translate(617.574 952.765)"/><path class="b" d="M6.482.375,5.1,3.17,2.02,3.62a.676.676,0,0,0-.374,1.153L3.877,6.947,3.35,10.018a.675.675,0,0,0,.98.711l2.759-1.45,2.759,1.45a.676.676,0,0,0,.98-.711L10.3,6.947,12.53,4.772a.676.676,0,0,0-.374-1.153L9.073,3.17,7.694.375a.676.676,0,0,0-1.212,0Z" transform="translate(797.691 941.955)"/><path class="b" d="M7.694.375l1.378,2.8,3.084.45a.676.676,0,0,1,.374,1.153L10.3,6.947l.528,3.072a.675.675,0,0,1-.98.711L7.088,9.279,4.329,10.73a.676.676,0,0,1-.98-.711l.528-3.072L1.646,4.772A.676.676,0,0,1,2.02,3.62L5.1,3.17,6.482.375a.676.676,0,0,1,1.212,0Z" transform="translate(554.131 941.955)"/><path class="b" d="M6.482.375,5.1,3.17,2.02,3.62a.676.676,0,0,0-.374,1.153L3.877,6.947,3.35,10.018a.675.675,0,0,0,.98.711l2.759-1.45,2.759,1.45a.676.676,0,0,0,.98-.711L10.3,6.947,12.53,4.772a.676.676,0,0,0-.374-1.153L9.073,3.17,7.694.375a.676.676,0,0,0-1.212,0Z" transform="translate(679.985 890.265)"/></g></svg>